solid OpenSCAD_Model
  facet normal -1 0 0
    outer loop
      vertex -22.5 -55 -10
      vertex -22.5 -55 11
      vertex -22.5 55 -10
    endloop
  endfacet
  facet normal -1 0 0
    outer loop
      vertex -22.5 55 -10
      vertex -22.5 -55 11
      vertex -22.5 55 11
    endloop
  endfacet
  facet normal -0.92388 -0.382683 0
    outer loop
      vertex -22.5 -55 -10
      vertex -21.7678 -56.7678 -10
      vertex -22.5 -55 11
    endloop
  endfacet
  facet normal -0.92388 -0.382683 0
    outer loop
      vertex -22.5 -55 11
      vertex -21.7678 -56.7678 -10
      vertex -21.7678 -56.7678 11
    endloop
  endfacet
  facet normal 0 0 -1
    outer loop
      vertex -22.5 -55 -10
      vertex -22.5 55 -10
      vertex -21.7678 -56.7678 -10
    endloop
  endfacet
  facet normal 0 0 -1
    outer loop
      vertex -21.7678 -56.7678 -10
      vertex -22.5 55 -10
      vertex -21.7678 56.7678 -10
    endloop
  endfacet
  facet normal 0 0 -1
    outer loop
      vertex -21.7678 -56.7678 -10
      vertex -21.7678 56.7678 -10
      vertex -20 57.5 -10
    endloop
  endfacet
  facet normal 0 0 -1
    outer loop
      vertex -18.441 54.7011 -10
      vertex -20 57.5 -10
      vertex 20 57.5 -10
    endloop
  endfacet
  facet normal 0 0 -1
    outer loop
      vertex 19.75 53.75 -10
      vertex 20 57.5 -10
      vertex 21.7678 56.7678 -10
    endloop
  endfacet
  facet normal 0 0 -1
    outer loop
      vertex 19.75 -53.75 -10
      vertex 22.5 55 -10
      vertex 22.5 -55 -10
    endloop
  endfacet
  facet normal 0 0 -1
    outer loop
      vertex -21.7678 -56.7678 -10
      vertex 22.5 -55 -10
      vertex 21.7678 -56.7678 -10
    endloop
  endfacet
  facet normal 0 0 -1
    outer loop
      vertex -21.7678 -56.7678 -10
      vertex 21.7678 -56.7678 -10
      vertex 20 -57.5 -10
    endloop
  endfacet
  facet normal 0 0 -1
    outer loop
      vertex -21.7678 -56.7678 -10
      vertex 20 -57.5 -10
      vertex -20 -57.5 -10
    endloop
  endfacet
  facet normal 0 0 -1
    outer loop
      vertex -21.7678 -56.7678 -10
      vertex -20 57.5 -10
      vertex -19.559 54.3378 -10
    endloop
  endfacet
  facet normal 0 0 -1
    outer loop
      vertex 19.059 -54.7011 -10
      vertex 22.5 -55 -10
      vertex -18.441 -54.7011 -10
    endloop
  endfacet
  facet normal 0 0 -1
    outer loop
      vertex -21.7678 -56.7678 -10
      vertex -19.559 -54.3378 -10
      vertex -18.441 -54.7011 -10
    endloop
  endfacet
  facet normal 0 0 -1
    outer loop
      vertex -21.7678 -56.7678 -10
      vertex -18.441 -54.7011 -10
      vertex 22.5 -55 -10
    endloop
  endfacet
  facet normal 0 0 -1
    outer loop
      vertex 19.75 53.75 -10
      vertex 22.5 55 -10
      vertex 19.75 -53.75 -10
    endloop
  endfacet
  facet normal 0 0 -1
    outer loop
      vertex 19.059 -54.7011 -10
      vertex 19.75 -53.75 -10
      vertex 22.5 -55 -10
    endloop
  endfacet
  facet normal 0 0 -1
    outer loop
      vertex 19.059 54.7011 -10
      vertex 20 57.5 -10
      vertex 19.75 53.75 -10
    endloop
  endfacet
  facet normal 0 0 -1
    outer loop
      vertex -19.559 54.3378 -10
      vertex -20 57.5 -10
      vertex -18.441 54.7011 -10
    endloop
  endfacet
  facet normal 0 0 -1
    outer loop
      vertex -19.559 -54.3378 -10
      vertex -21.7678 -56.7678 -10
      vertex -19.559 54.3378 -10
    endloop
  endfacet
  facet normal 0 0 -1
    outer loop
      vertex 19.75 53.75 -10
      vertex 21.7678 56.7678 -10
      vertex 22.5 55 -10
    endloop
  endfacet
  facet normal 0 0 -1
    outer loop
      vertex -18.441 54.7011 -10
      vertex 20 57.5 -10
      vertex 19.059 54.7011 -10
    endloop
  endfacet
  facet normal -0.92388 0.382683 0
    outer loop
      vertex -22.5 55 -10
      vertex -22.5 55 11
      vertex -21.7678 56.7678 -10
    endloop
  endfacet
  facet normal -0.92388 0.382683 0
    outer loop
      vertex -21.7678 56.7678 -10
      vertex -22.5 55 11
      vertex -21.7678 56.7678 11
    endloop
  endfacet
  facet normal 0 0 1
    outer loop
      vertex -22.5 55 11
      vertex -22.5 -55 11
      vertex -21.7678 -56.7678 11
    endloop
  endfacet
  facet normal 0 0 1
    outer loop
      vertex 20 -57.5 11
      vertex -22.5 55 11
      vertex -20 -57.5 11
    endloop
  endfacet
  facet normal 0 0 1
    outer loop
      vertex -20 -57.5 11
      vertex -22.5 55 11
      vertex -21.7678 -56.7678 11
    endloop
  endfacet
  facet normal 0 0 1
    outer loop
      vertex 21.7678 -56.7678 11
      vertex -22.5 55 11
      vertex 20 -57.5 11
    endloop
  endfacet
  facet normal 0 0 1
    outer loop
      vertex 22.5 -55 11
      vertex -22.5 55 11
      vertex 21.7678 -56.7678 11
    endloop
  endfacet
  facet normal 0 0 1
    outer loop
      vertex 22.5 55 11
      vertex -22.5 55 11
      vertex 22.5 -55 11
    endloop
  endfacet
  facet normal 0 0 1
    outer loop
      vertex 21.7678 56.7678 11
      vertex -22.5 55 11
      vertex 22.5 55 11
    endloop
  endfacet
  facet normal 0 0 1
    outer loop
      vertex 20 57.5 11
      vertex -22.5 55 11
      vertex 21.7678 56.7678 11
    endloop
  endfacet
  facet normal 0 0 1
    outer loop
      vertex -20 57.5 11
      vertex -22.5 55 11
      vertex 20 57.5 11
    endloop
  endfacet
  facet normal 0 0 1
    outer loop
      vertex -21.7678 56.7678 11
      vertex -22.5 55 11
      vertex -20 57.5 11
    endloop
  endfacet
  facet normal -0.382683 -0.92388 0
    outer loop
      vertex -21.7678 -56.7678 11
      vertex -21.7678 -56.7678 -10
      vertex -20 -57.5 -10
    endloop
  endfacet
  facet normal -0.382683 -0.92388 0
    outer loop
      vertex -20 -57.5 11
      vertex -21.7678 -56.7678 11
      vertex -20 -57.5 -10
    endloop
  endfacet
  facet normal 0 -1 0
    outer loop
      vertex -20 -57.5 11
      vertex -20 -57.5 -10
      vertex 20 -57.5 -10
    endloop
  endfacet
  facet normal 0 -1 0
    outer loop
      vertex 20 -57.5 11
      vertex -20 -57.5 11
      vertex 20 -57.5 -10
    endloop
  endfacet
  facet normal 0.382683 -0.92388 0
    outer loop
      vertex 20 -57.5 11
      vertex 20 -57.5 -10
      vertex 21.7678 -56.7678 -10
    endloop
  endfacet
  facet normal 0.382683 -0.92388 0
    outer loop
      vertex 21.7678 -56.7678 11
      vertex 20 -57.5 11
      vertex 21.7678 -56.7678 -10
    endloop
  endfacet
  facet normal 0.92388 -0.382683 0
    outer loop
      vertex 21.7678 -56.7678 11
      vertex 21.7678 -56.7678 -10
      vertex 22.5 -55 -10
    endloop
  endfacet
  facet normal 0.92388 -0.382683 0
    outer loop
      vertex 22.5 -55 11
      vertex 21.7678 -56.7678 11
      vertex 22.5 -55 -10
    endloop
  endfacet
  facet normal 1 0 0
    outer loop
      vertex 22.5 -55 11
      vertex 22.5 -55 -10
      vertex 22.5 55 -10
    endloop
  endfacet
  facet normal 1 0 0
    outer loop
      vertex 22.5 55 11
      vertex 22.5 -55 11
      vertex 22.5 55 -10
    endloop
  endfacet
  facet normal 0.92388 0.382683 0
    outer loop
      vertex 22.5 55 -10
      vertex 21.7678 56.7678 -10
      vertex 21.7678 56.7678 11
    endloop
  endfacet
  facet normal 0.92388 0.382683 0
    outer loop
      vertex 22.5 55 11
      vertex 22.5 55 -10
      vertex 21.7678 56.7678 11
    endloop
  endfacet
  facet normal 0.382683 0.92388 0
    outer loop
      vertex 20 57.5 -10
      vertex 20 57.5 11
      vertex 21.7678 56.7678 -10
    endloop
  endfacet
  facet normal 0.382683 0.92388 0
    outer loop
      vertex 21.7678 56.7678 -10
      vertex 20 57.5 11
      vertex 21.7678 56.7678 11
    endloop
  endfacet
  facet normal 0 1 0
    outer loop
      vertex -20 57.5 -10
      vertex -20 57.5 11
      vertex 20 57.5 -10
    endloop
  endfacet
  facet normal 0 1 0
    outer loop
      vertex 20 57.5 -10
      vertex -20 57.5 11
      vertex 20 57.5 11
    endloop
  endfacet
  facet normal -0.382683 0.92388 0
    outer loop
      vertex -21.7678 56.7678 -10
      vertex -21.7678 56.7678 11
      vertex -20 57.5 -10
    endloop
  endfacet
  facet normal -0.382683 0.92388 0
    outer loop
      vertex -20 57.5 -10
      vertex -21.7678 56.7678 11
      vertex -20 57.5 11
    endloop
  endfacet
  facet normal 0.309018 -0.951056 0
    outer loop
      vertex -18.441 54.7011 -10
      vertex -18.441 54.7011 7.25
      vertex -19.559 54.3378 7.25
    endloop
  endfacet
  facet normal 0.309018 -0.951056 0
    outer loop
      vertex -19.559 54.3378 -10
      vertex -18.441 54.7011 -10
      vertex -19.559 54.3378 7.25
    endloop
  endfacet
  facet normal 1 0 0
    outer loop
      vertex -19.559 54.3378 -10
      vertex -19.559 54.3378 7.25
      vertex -19.559 -54.3378 7.25
    endloop
  endfacet
  facet normal 1 0 0
    outer loop
      vertex -19.559 -54.3378 -10
      vertex -19.559 54.3378 -10
      vertex -19.559 -54.3378 7.25
    endloop
  endfacet
  facet normal 0 -1 0
    outer loop
      vertex 19.059 54.7011 -10
      vertex 19.059 54.7011 7.25
      vertex -18.441 54.7011 7.25
    endloop
  endfacet
  facet normal 0 -1 0
    outer loop
      vertex -18.441 54.7011 -10
      vertex 19.059 54.7011 -10
      vertex -18.441 54.7011 7.25
    endloop
  endfacet
  facet normal -0.809017 -0.587785 0
    outer loop
      vertex 19.75 53.75 7.25
      vertex 19.059 54.7011 7.25
      vertex 19.75 53.75 -10
    endloop
  endfacet
  facet normal -0.809017 -0.587785 0
    outer loop
      vertex 19.75 53.75 -10
      vertex 19.059 54.7011 7.25
      vertex 19.059 54.7011 -10
    endloop
  endfacet
  facet normal -1 0 0
    outer loop
      vertex 19.75 53.75 7.25
      vertex 19.75 53.75 -10
      vertex 19.75 -53.75 7.25
    endloop
  endfacet
  facet normal -1 0 0
    outer loop
      vertex 19.75 -53.75 7.25
      vertex 19.75 53.75 -10
      vertex 19.75 -53.75 -10
    endloop
  endfacet
  facet normal -0.809017 0.587785 0
    outer loop
      vertex 19.75 -53.75 7.25
      vertex 19.75 -53.75 -10
      vertex 19.059 -54.7011 7.25
    endloop
  endfacet
  facet normal -0.809017 0.587785 0
    outer loop
      vertex 19.059 -54.7011 7.25
      vertex 19.75 -53.75 -10
      vertex 19.059 -54.7011 -10
    endloop
  endfacet
  facet normal 0 1 0
    outer loop
      vertex 19.059 -54.7011 7.25
      vertex 19.059 -54.7011 -10
      vertex -18.441 -54.7011 7.25
    endloop
  endfacet
  facet normal 0 1 0
    outer loop
      vertex -18.441 -54.7011 7.25
      vertex 19.059 -54.7011 -10
      vertex -18.441 -54.7011 -10
    endloop
  endfacet
  facet normal 0.309018 0.951056 0
    outer loop
      vertex -18.441 -54.7011 7.25
      vertex -18.441 -54.7011 -10
      vertex -19.559 -54.3378 7.25
    endloop
  endfacet
  facet normal 0.309018 0.951056 0
    outer loop
      vertex -19.559 -54.3378 7.25
      vertex -18.441 -54.7011 -10
      vertex -19.559 -54.3378 -10
    endloop
  endfacet
  facet normal 0 0 -1
    outer loop
      vertex -18.441 54.7011 7.25
      vertex 19.059 54.7011 7.25
      vertex -19.559 54.3378 7.25
    endloop
  endfacet
  facet normal 0 0 -1
    outer loop
      vertex -19.559 54.3378 7.25
      vertex 19.059 54.7011 7.25
      vertex 19.75 53.75 7.25
    endloop
  endfacet
  facet normal 0 0 -1
    outer loop
      vertex -19.559 54.3378 7.25
      vertex 19.75 53.75 7.25
      vertex 19.75 -53.75 7.25
    endloop
  endfacet
  facet normal 0 0 -1
    outer loop
      vertex -19.559 54.3378 7.25
      vertex 19.75 -53.75 7.25
      vertex 19.059 -54.7011 7.25
    endloop
  endfacet
  facet normal 0 0 -1
    outer loop
      vertex -19.559 54.3378 7.25
      vertex 19.059 -54.7011 7.25
      vertex -18.441 -54.7011 7.25
    endloop
  endfacet
  facet normal 0 0 -1
    outer loop
      vertex -19.559 54.3378 7.25
      vertex -18.441 -54.7011 7.25
      vertex -19.559 -54.3378 7.25
    endloop
  endfacet
endsolid OpenSCAD_Model
