solid OpenSCAD_Model
  facet normal -1 0 0
    outer loop
      vertex -22.5 26.8452 -36.25
      vertex -22.5 26.8452 -33.75
      vertex -22.5 36.0119 -36.25
    endloop
  endfacet
  facet normal -1 0 0
    outer loop
      vertex -22.5 36.0119 -36.25
      vertex -22.5 26.8452 -33.75
      vertex -22.5 36.0119 -33.75
    endloop
  endfacet
  facet normal 0 -1 0
    outer loop
      vertex -22.5 26.8452 -33.75
      vertex -22.5 26.8452 -36.25
      vertex 22.5 26.8452 -36.25
    endloop
  endfacet
  facet normal 0 -1 0
    outer loop
      vertex 22.5 26.8452 -33.75
      vertex -22.5 26.8452 -33.75
      vertex 22.5 26.8452 -36.25
    endloop
  endfacet
  facet normal 0 0 -1
    outer loop
      vertex -22.5 26.8452 -36.25
      vertex -22.5 36.0119 -36.25
      vertex 22.5 26.8452 -36.25
    endloop
  endfacet
  facet normal 0 0 -1
    outer loop
      vertex 22.5 26.8452 -36.25
      vertex -22.5 36.0119 -36.25
      vertex 22.5 36.0119 -36.25
    endloop
  endfacet
  facet normal 0 1 0
    outer loop
      vertex -22.5 36.0119 -36.25
      vertex -22.5 36.0119 -33.75
      vertex 22.5 36.0119 -36.25
    endloop
  endfacet
  facet normal 0 1 0
    outer loop
      vertex 22.5 36.0119 -36.25
      vertex -22.5 36.0119 -33.75
      vertex 22.5 36.0119 -33.75
    endloop
  endfacet
  facet normal 0 0 1
    outer loop
      vertex -19.6137 30.2398 -33.75
      vertex -22.5 26.8452 -33.75
      vertex 22.5 26.8452 -33.75
    endloop
  endfacet
  facet normal 0 0 1
    outer loop
      vertex 5 30.5692 -33.75
      vertex 2.5 30.5692 -33.75
      vertex 22.5 26.8452 -33.75
    endloop
  endfacet
  facet normal 0 0 1
    outer loop
      vertex 6.25 30.5692 -33.75
      vertex 5 30.5692 -33.75
      vertex 22.5 26.8452 -33.75
    endloop
  endfacet
  facet normal 0 0 1
    outer loop
      vertex -22.5 36.0119 -33.75
      vertex -22.5 26.8452 -33.75
      vertex -21.0113 30.6938 -33.75
    endloop
  endfacet
  facet normal 0 0 1
    outer loop
      vertex 13.75 30.5692 -33.75
      vertex 12.5 30.5692 -33.75
      vertex 22.5 26.8452 -33.75
    endloop
  endfacet
  facet normal 0 0 1
    outer loop
      vertex -22.5 36.0119 -33.75
      vertex -21.0113 30.6938 -33.75
      vertex -21.0113 32.1633 -33.75
    endloop
  endfacet
  facet normal 0 0 1
    outer loop
      vertex -22.5 36.0119 -33.75
      vertex -21.0113 32.1633 -33.75
      vertex -19.6137 32.6174 -33.75
    endloop
  endfacet
  facet normal 0 0 1
    outer loop
      vertex -10 32.2879 -33.75
      vertex -10 30.5692 -33.75
      vertex -8.75 30.5692 -33.75
    endloop
  endfacet
  facet normal 0 0 1
    outer loop
      vertex -21.0113 30.6938 -33.75
      vertex -22.5 26.8452 -33.75
      vertex -19.6137 30.2398 -33.75
    endloop
  endfacet
  facet normal 0 0 1
    outer loop
      vertex -13.75 30.5692 -33.75
      vertex -16.25 30.5692 -33.75
      vertex 22.5 26.8452 -33.75
    endloop
  endfacet
  facet normal 0 0 1
    outer loop
      vertex 16.25 32.2879 -33.75
      vertex 16.25 30.5692 -33.75
      vertex 22.5 26.8452 -33.75
    endloop
  endfacet
  facet normal 0 0 1
    outer loop
      vertex -12.5 30.5692 -33.75
      vertex -12.5 32.2879 -33.75
      vertex -13.75 32.2879 -33.75
    endloop
  endfacet
  facet normal 0 0 1
    outer loop
      vertex -22.5 36.0119 -33.75
      vertex -19.6137 32.6174 -33.75
      vertex -16.25 32.2879 -33.75
    endloop
  endfacet
  facet normal 0 0 1
    outer loop
      vertex -22.5 36.0119 -33.75
      vertex -16.25 32.2879 -33.75
      vertex -13.75 32.2879 -33.75
    endloop
  endfacet
  facet normal 0 0 1
    outer loop
      vertex -12.5 30.5692 -33.75
      vertex -13.75 30.5692 -33.75
      vertex 22.5 26.8452 -33.75
    endloop
  endfacet
  facet normal 0 0 1
    outer loop
      vertex -13.75 32.2879 -33.75
      vertex -13.75 30.5692 -33.75
      vertex -12.5 30.5692 -33.75
    endloop
  endfacet
  facet normal 0 0 1
    outer loop
      vertex -8.75 30.5692 -33.75
      vertex -8.75 32.2879 -33.75
      vertex -10 32.2879 -33.75
    endloop
  endfacet
  facet normal 0 0 1
    outer loop
      vertex -22.5 36.0119 -33.75
      vertex -13.75 32.2879 -33.75
      vertex -12.5 32.2879 -33.75
    endloop
  endfacet
  facet normal 0 0 1
    outer loop
      vertex -22.5 36.0119 -33.75
      vertex -12.5 32.2879 -33.75
      vertex -10 32.2879 -33.75
    endloop
  endfacet
  facet normal 0 0 1
    outer loop
      vertex -8.75 30.5692 -33.75
      vertex -10 30.5692 -33.75
      vertex 22.5 26.8452 -33.75
    endloop
  endfacet
  facet normal 0 0 1
    outer loop
      vertex -18.75 31.4286 -33.75
      vertex -19.6137 30.2398 -33.75
      vertex -16.25 30.5692 -33.75
    endloop
  endfacet
  facet normal 0 0 1
    outer loop
      vertex -16.25 30.5692 -33.75
      vertex -19.6137 30.2398 -33.75
      vertex 22.5 26.8452 -33.75
    endloop
  endfacet
  facet normal 0 0 1
    outer loop
      vertex -22.5 36.0119 -33.75
      vertex -10 32.2879 -33.75
      vertex -8.75 32.2879 -33.75
    endloop
  endfacet
  facet normal 0 0 1
    outer loop
      vertex -22.5 36.0119 -33.75
      vertex -8.75 32.2879 -33.75
      vertex -6.25 32.2879 -33.75
    endloop
  endfacet
  facet normal 0 0 1
    outer loop
      vertex -5 30.5692 -33.75
      vertex -6.25 30.5692 -33.75
      vertex 22.5 26.8452 -33.75
    endloop
  endfacet
  facet normal 0 0 1
    outer loop
      vertex -10 30.5692 -33.75
      vertex -12.5 30.5692 -33.75
      vertex 22.5 26.8452 -33.75
    endloop
  endfacet
  facet normal 0 0 1
    outer loop
      vertex -2.5 30.5692 -33.75
      vertex -5 30.5692 -33.75
      vertex 22.5 26.8452 -33.75
    endloop
  endfacet
  facet normal 0 0 1
    outer loop
      vertex 1.25 32.2879 -33.75
      vertex 1.25 30.5692 -33.75
      vertex 2.5 30.5692 -33.75
    endloop
  endfacet
  facet normal 0 0 1
    outer loop
      vertex 5 32.2879 -33.75
      vertex 5 30.5692 -33.75
      vertex 6.25 30.5692 -33.75
    endloop
  endfacet
  facet normal 0 0 1
    outer loop
      vertex -22.5 36.0119 -33.75
      vertex -6.25 32.2879 -33.75
      vertex -5 32.2879 -33.75
    endloop
  endfacet
  facet normal 0 0 1
    outer loop
      vertex 22.5 36.0119 -33.75
      vertex -22.5 36.0119 -33.75
      vertex -2.5 32.2879 -33.75
    endloop
  endfacet
  facet normal 0 0 1
    outer loop
      vertex -1.25 30.5692 -33.75
      vertex -2.5 30.5692 -33.75
      vertex 22.5 26.8452 -33.75
    endloop
  endfacet
  facet normal 0 0 1
    outer loop
      vertex 1.25 30.5692 -33.75
      vertex -1.25 30.5692 -33.75
      vertex 22.5 26.8452 -33.75
    endloop
  endfacet
  facet normal 0 0 1
    outer loop
      vertex 2.5 30.5692 -33.75
      vertex 2.5 32.2879 -33.75
      vertex 1.25 32.2879 -33.75
    endloop
  endfacet
  facet normal 0 0 1
    outer loop
      vertex 22.5 36.0119 -33.75
      vertex -2.5 32.2879 -33.75
      vertex -1.25 32.2879 -33.75
    endloop
  endfacet
  facet normal 0 0 1
    outer loop
      vertex 10 30.5692 -33.75
      vertex 8.75 30.5692 -33.75
      vertex 22.5 26.8452 -33.75
    endloop
  endfacet
  facet normal 0 0 1
    outer loop
      vertex 22.5 36.0119 -33.75
      vertex -1.25 32.2879 -33.75
      vertex 1.25 32.2879 -33.75
    endloop
  endfacet
  facet normal 0 0 1
    outer loop
      vertex 2.5 30.5692 -33.75
      vertex 1.25 30.5692 -33.75
      vertex 22.5 26.8452 -33.75
    endloop
  endfacet
  facet normal 0 0 1
    outer loop
      vertex -5 30.5692 -33.75
      vertex -5 32.2879 -33.75
      vertex -6.25 32.2879 -33.75
    endloop
  endfacet
  facet normal 0 0 1
    outer loop
      vertex -1.25 30.5692 -33.75
      vertex -1.25 32.2879 -33.75
      vertex -2.5 32.2879 -33.75
    endloop
  endfacet
  facet normal 0 0 1
    outer loop
      vertex -5 32.2879 -33.75
      vertex -2.5 32.2879 -33.75
      vertex -22.5 36.0119 -33.75
    endloop
  endfacet
  facet normal 0 0 1
    outer loop
      vertex 6.25 30.5692 -33.75
      vertex 6.25 32.2879 -33.75
      vertex 5 32.2879 -33.75
    endloop
  endfacet
  facet normal 0 0 1
    outer loop
      vertex 22.5 36.0119 -33.75
      vertex 1.25 32.2879 -33.75
      vertex 2.5 32.2879 -33.75
    endloop
  endfacet
  facet normal 0 0 1
    outer loop
      vertex 22.5 36.0119 -33.75
      vertex 2.5 32.2879 -33.75
      vertex 5 32.2879 -33.75
    endloop
  endfacet
  facet normal 0 0 1
    outer loop
      vertex 8.75 32.2879 -33.75
      vertex 8.75 30.5692 -33.75
      vertex 10 30.5692 -33.75
    endloop
  endfacet
  facet normal 0 0 1
    outer loop
      vertex 22.5 36.0119 -33.75
      vertex 5 32.2879 -33.75
      vertex 6.25 32.2879 -33.75
    endloop
  endfacet
  facet normal 0 0 1
    outer loop
      vertex 22.5 36.0119 -33.75
      vertex 6.25 32.2879 -33.75
      vertex 8.75 32.2879 -33.75
    endloop
  endfacet
  facet normal 0 0 1
    outer loop
      vertex 12.5 30.5692 -33.75
      vertex 10 30.5692 -33.75
      vertex 22.5 26.8452 -33.75
    endloop
  endfacet
  facet normal 0 0 1
    outer loop
      vertex 22.5 36.0119 -33.75
      vertex 8.75 32.2879 -33.75
      vertex 10 32.2879 -33.75
    endloop
  endfacet
  facet normal 0 0 1
    outer loop
      vertex 13.75 30.5692 -33.75
      vertex 13.75 32.2879 -33.75
      vertex 12.5 32.2879 -33.75
    endloop
  endfacet
  facet normal 0 0 1
    outer loop
      vertex 22.5 36.0119 -33.75
      vertex 10 32.2879 -33.75
      vertex 12.5 32.2879 -33.75
    endloop
  endfacet
  facet normal 0 0 1
    outer loop
      vertex 12.5 32.2879 -33.75
      vertex 12.5 30.5692 -33.75
      vertex 13.75 30.5692 -33.75
    endloop
  endfacet
  facet normal 0 0 1
    outer loop
      vertex 10 30.5692 -33.75
      vertex 10 32.2879 -33.75
      vertex 8.75 32.2879 -33.75
    endloop
  endfacet
  facet normal 0 0 1
    outer loop
      vertex 16.25 30.5692 -33.75
      vertex 13.75 30.5692 -33.75
      vertex 22.5 26.8452 -33.75
    endloop
  endfacet
  facet normal 0 0 1
    outer loop
      vertex 18.9887 32.1633 -33.75
      vertex 20.3863 32.6174 -33.75
      vertex 22.5 36.0119 -33.75
    endloop
  endfacet
  facet normal 0 0 1
    outer loop
      vertex 22.5 36.0119 -33.75
      vertex 12.5 32.2879 -33.75
      vertex 13.75 32.2879 -33.75
    endloop
  endfacet
  facet normal 0 0 1
    outer loop
      vertex 18.9887 30.6938 -33.75
      vertex 16.25 32.2879 -33.75
      vertex 22.5 26.8452 -33.75
    endloop
  endfacet
  facet normal 0 0 1
    outer loop
      vertex 22.5 36.0119 -33.75
      vertex 13.75 32.2879 -33.75
      vertex 16.25 32.2879 -33.75
    endloop
  endfacet
  facet normal 0 0 1
    outer loop
      vertex 20.3863 30.2398 -33.75
      vertex 18.9887 30.6938 -33.75
      vertex 22.5 26.8452 -33.75
    endloop
  endfacet
  facet normal 0 0 1
    outer loop
      vertex 18.9887 32.1633 -33.75
      vertex 16.25 32.2879 -33.75
      vertex 18.9887 30.6938 -33.75
    endloop
  endfacet
  facet normal 0 0 1
    outer loop
      vertex 21.25 31.4286 -33.75
      vertex 20.3863 30.2398 -33.75
      vertex 22.5 26.8452 -33.75
    endloop
  endfacet
  facet normal 0 0 1
    outer loop
      vertex 22.5 36.0119 -33.75
      vertex 16.25 32.2879 -33.75
      vertex 18.9887 32.1633 -33.75
    endloop
  endfacet
  facet normal 0 0 1
    outer loop
      vertex 22.5 36.0119 -33.75
      vertex 21.25 31.4286 -33.75
      vertex 22.5 26.8452 -33.75
    endloop
  endfacet
  facet normal 0 0 1
    outer loop
      vertex 22.5 36.0119 -33.75
      vertex 20.3863 32.6174 -33.75
      vertex 21.25 31.4286 -33.75
    endloop
  endfacet
  facet normal 0 0 1
    outer loop
      vertex -6.25 30.5692 -33.75
      vertex -8.75 30.5692 -33.75
      vertex 22.5 26.8452 -33.75
    endloop
  endfacet
  facet normal 0 0 1
    outer loop
      vertex -2.5 32.2879 -33.75
      vertex -2.5 30.5692 -33.75
      vertex -1.25 30.5692 -33.75
    endloop
  endfacet
  facet normal 0 0 1
    outer loop
      vertex -6.25 32.2879 -33.75
      vertex -6.25 30.5692 -33.75
      vertex -5 30.5692 -33.75
    endloop
  endfacet
  facet normal 0 0 1
    outer loop
      vertex 8.75 30.5692 -33.75
      vertex 6.25 30.5692 -33.75
      vertex 22.5 26.8452 -33.75
    endloop
  endfacet
  facet normal 0 0 1
    outer loop
      vertex -16.25 30.5692 -33.75
      vertex -19.6137 32.6174 -33.75
      vertex -18.75 31.4286 -33.75
    endloop
  endfacet
  facet normal 0 0 1
    outer loop
      vertex -16.25 30.5692 -33.75
      vertex -16.25 32.2879 -33.75
      vertex -19.6137 32.6174 -33.75
    endloop
  endfacet
  facet normal 1 0 0
    outer loop
      vertex 22.5 26.8452 -33.75
      vertex 22.5 26.8452 -36.25
      vertex 22.5 36.0119 -36.25
    endloop
  endfacet
  facet normal 1 0 0
    outer loop
      vertex 22.5 36.0119 -33.75
      vertex 22.5 26.8452 -33.75
      vertex 22.5 36.0119 -36.25
    endloop
  endfacet
  facet normal -1 0 0
    outer loop
      vertex -21.0113 30.6938 -33.75
      vertex -21.0113 30.6938 -32.5
      vertex -21.0113 32.1633 -33.75
    endloop
  endfacet
  facet normal -1 0 0
    outer loop
      vertex -21.0113 32.1633 -33.75
      vertex -21.0113 30.6938 -32.5
      vertex -21.0113 32.1633 -32.5
    endloop
  endfacet
  facet normal -0.309017 -0.951057 0
    outer loop
      vertex -21.0113 30.6938 -32.5
      vertex -21.0113 30.6938 -33.75
      vertex -19.6137 30.2398 -33.75
    endloop
  endfacet
  facet normal -0.309017 -0.951057 0
    outer loop
      vertex -19.6137 30.2398 -32.5
      vertex -21.0113 30.6938 -32.5
      vertex -19.6137 30.2398 -33.75
    endloop
  endfacet
  facet normal 0.809017 -0.587785 0
    outer loop
      vertex -19.6137 30.2398 -32.5
      vertex -19.6137 30.2398 -33.75
      vertex -18.75 31.4286 -33.75
    endloop
  endfacet
  facet normal 0.809017 -0.587785 0
    outer loop
      vertex -18.75 31.4286 -32.5
      vertex -19.6137 30.2398 -32.5
      vertex -18.75 31.4286 -33.75
    endloop
  endfacet
  facet normal 0.809017 0.587785 0
    outer loop
      vertex -18.75 31.4286 -33.75
      vertex -19.6137 32.6174 -33.75
      vertex -19.6137 32.6174 -32.5
    endloop
  endfacet
  facet normal 0.809017 0.587785 0
    outer loop
      vertex -18.75 31.4286 -32.5
      vertex -18.75 31.4286 -33.75
      vertex -19.6137 32.6174 -32.5
    endloop
  endfacet
  facet normal -0.309017 0.951057 0
    outer loop
      vertex -21.0113 32.1633 -33.75
      vertex -21.0113 32.1633 -32.5
      vertex -19.6137 32.6174 -33.75
    endloop
  endfacet
  facet normal -0.309017 0.951057 0
    outer loop
      vertex -19.6137 32.6174 -33.75
      vertex -21.0113 32.1633 -32.5
      vertex -19.6137 32.6174 -32.5
    endloop
  endfacet
  facet normal -1 0 0
    outer loop
      vertex -16.25 30.5692 -33.75
      vertex -16.25 30.5692 -30
      vertex -16.25 32.2879 -33.75
    endloop
  endfacet
  facet normal -1 0 0
    outer loop
      vertex -16.25 32.2879 -33.75
      vertex -16.25 30.5692 -30
      vertex -16.25 32.2879 -30
    endloop
  endfacet
  facet normal 0 -1 0
    outer loop
      vertex -16.25 30.5692 -30
      vertex -16.25 30.5692 -33.75
      vertex -13.75 30.5692 -33.75
    endloop
  endfacet
  facet normal 0 -1 0
    outer loop
      vertex -13.75 30.5692 -30
      vertex -16.25 30.5692 -30
      vertex -13.75 30.5692 -33.75
    endloop
  endfacet
  facet normal 1 0 0
    outer loop
      vertex -13.75 30.5692 -30
      vertex -13.75 30.5692 -33.75
      vertex -13.75 32.2879 -33.75
    endloop
  endfacet
  facet normal 1 0 0
    outer loop
      vertex -13.75 32.2879 -30
      vertex -13.75 30.5692 -30
      vertex -13.75 32.2879 -33.75
    endloop
  endfacet
  facet normal 0 1 0
    outer loop
      vertex -16.25 32.2879 -33.75
      vertex -16.25 32.2879 -30
      vertex -13.75 32.2879 -33.75
    endloop
  endfacet
  facet normal 0 1 0
    outer loop
      vertex -13.75 32.2879 -33.75
      vertex -16.25 32.2879 -30
      vertex -13.75 32.2879 -30
    endloop
  endfacet
  facet normal -1 0 0
    outer loop
      vertex -12.5 30.5692 -33.75
      vertex -12.5 30.5692 -30
      vertex -12.5 32.2879 -33.75
    endloop
  endfacet
  facet normal -1 0 0
    outer loop
      vertex -12.5 32.2879 -33.75
      vertex -12.5 30.5692 -30
      vertex -12.5 32.2879 -30
    endloop
  endfacet
  facet normal 0 -1 0
    outer loop
      vertex -12.5 30.5692 -30
      vertex -12.5 30.5692 -33.75
      vertex -10 30.5692 -33.75
    endloop
  endfacet
  facet normal 0 -1 0
    outer loop
      vertex -10 30.5692 -30
      vertex -12.5 30.5692 -30
      vertex -10 30.5692 -33.75
    endloop
  endfacet
  facet normal 1 0 0
    outer loop
      vertex -10 30.5692 -30
      vertex -10 30.5692 -33.75
      vertex -10 32.2879 -33.75
    endloop
  endfacet
  facet normal 1 0 0
    outer loop
      vertex -10 32.2879 -30
      vertex -10 30.5692 -30
      vertex -10 32.2879 -33.75
    endloop
  endfacet
  facet normal 0 1 0
    outer loop
      vertex -12.5 32.2879 -33.75
      vertex -12.5 32.2879 -30
      vertex -10 32.2879 -33.75
    endloop
  endfacet
  facet normal 0 1 0
    outer loop
      vertex -10 32.2879 -33.75
      vertex -12.5 32.2879 -30
      vertex -10 32.2879 -30
    endloop
  endfacet
  facet normal -1 0 0
    outer loop
      vertex -8.75 30.5692 -33.75
      vertex -8.75 30.5692 -30
      vertex -8.75 32.2879 -33.75
    endloop
  endfacet
  facet normal -1 0 0
    outer loop
      vertex -8.75 32.2879 -33.75
      vertex -8.75 30.5692 -30
      vertex -8.75 32.2879 -30
    endloop
  endfacet
  facet normal 0 -1 0
    outer loop
      vertex -8.75 30.5692 -30
      vertex -8.75 30.5692 -33.75
      vertex -6.25 30.5692 -33.75
    endloop
  endfacet
  facet normal 0 -1 0
    outer loop
      vertex -6.25 30.5692 -30
      vertex -8.75 30.5692 -30
      vertex -6.25 30.5692 -33.75
    endloop
  endfacet
  facet normal 1 0 0
    outer loop
      vertex -6.25 30.5692 -30
      vertex -6.25 30.5692 -33.75
      vertex -6.25 32.2879 -33.75
    endloop
  endfacet
  facet normal 1 0 0
    outer loop
      vertex -6.25 32.2879 -30
      vertex -6.25 30.5692 -30
      vertex -6.25 32.2879 -33.75
    endloop
  endfacet
  facet normal 0 1 0
    outer loop
      vertex -8.75 32.2879 -33.75
      vertex -8.75 32.2879 -30
      vertex -6.25 32.2879 -33.75
    endloop
  endfacet
  facet normal 0 1 0
    outer loop
      vertex -6.25 32.2879 -33.75
      vertex -8.75 32.2879 -30
      vertex -6.25 32.2879 -30
    endloop
  endfacet
  facet normal -1 0 0
    outer loop
      vertex -5 30.5692 -33.75
      vertex -5 30.5692 -30
      vertex -5 32.2879 -33.75
    endloop
  endfacet
  facet normal -1 0 0
    outer loop
      vertex -5 32.2879 -33.75
      vertex -5 30.5692 -30
      vertex -5 32.2879 -30
    endloop
  endfacet
  facet normal 0 -1 0
    outer loop
      vertex -5 30.5692 -30
      vertex -5 30.5692 -33.75
      vertex -2.5 30.5692 -33.75
    endloop
  endfacet
  facet normal 0 -1 0
    outer loop
      vertex -2.5 30.5692 -30
      vertex -5 30.5692 -30
      vertex -2.5 30.5692 -33.75
    endloop
  endfacet
  facet normal 1 0 0
    outer loop
      vertex -2.5 30.5692 -30
      vertex -2.5 30.5692 -33.75
      vertex -2.5 32.2879 -33.75
    endloop
  endfacet
  facet normal 1 0 0
    outer loop
      vertex -2.5 32.2879 -30
      vertex -2.5 30.5692 -30
      vertex -2.5 32.2879 -33.75
    endloop
  endfacet
  facet normal 0 1 0
    outer loop
      vertex -5 32.2879 -33.75
      vertex -5 32.2879 -30
      vertex -2.5 32.2879 -33.75
    endloop
  endfacet
  facet normal 0 1 0
    outer loop
      vertex -2.5 32.2879 -33.75
      vertex -5 32.2879 -30
      vertex -2.5 32.2879 -30
    endloop
  endfacet
  facet normal -1 0 0
    outer loop
      vertex -1.25 30.5692 -33.75
      vertex -1.25 30.5692 -30
      vertex -1.25 32.2879 -33.75
    endloop
  endfacet
  facet normal -1 0 0
    outer loop
      vertex -1.25 32.2879 -33.75
      vertex -1.25 30.5692 -30
      vertex -1.25 32.2879 -30
    endloop
  endfacet
  facet normal 0 -1 0
    outer loop
      vertex -1.25 30.5692 -30
      vertex -1.25 30.5692 -33.75
      vertex 1.25 30.5692 -33.75
    endloop
  endfacet
  facet normal 0 -1 0
    outer loop
      vertex 1.25 30.5692 -30
      vertex -1.25 30.5692 -30
      vertex 1.25 30.5692 -33.75
    endloop
  endfacet
  facet normal 1 0 0
    outer loop
      vertex 1.25 30.5692 -30
      vertex 1.25 30.5692 -33.75
      vertex 1.25 32.2879 -33.75
    endloop
  endfacet
  facet normal 1 0 0
    outer loop
      vertex 1.25 32.2879 -30
      vertex 1.25 30.5692 -30
      vertex 1.25 32.2879 -33.75
    endloop
  endfacet
  facet normal 0 1 0
    outer loop
      vertex -1.25 32.2879 -33.75
      vertex -1.25 32.2879 -30
      vertex 1.25 32.2879 -33.75
    endloop
  endfacet
  facet normal 0 1 0
    outer loop
      vertex 1.25 32.2879 -33.75
      vertex -1.25 32.2879 -30
      vertex 1.25 32.2879 -30
    endloop
  endfacet
  facet normal -1 0 0
    outer loop
      vertex 2.5 30.5692 -33.75
      vertex 2.5 30.5692 -30
      vertex 2.5 32.2879 -33.75
    endloop
  endfacet
  facet normal -1 0 0
    outer loop
      vertex 2.5 32.2879 -33.75
      vertex 2.5 30.5692 -30
      vertex 2.5 32.2879 -30
    endloop
  endfacet
  facet normal 0 -1 0
    outer loop
      vertex 2.5 30.5692 -30
      vertex 2.5 30.5692 -33.75
      vertex 5 30.5692 -33.75
    endloop
  endfacet
  facet normal 0 -1 0
    outer loop
      vertex 5 30.5692 -30
      vertex 2.5 30.5692 -30
      vertex 5 30.5692 -33.75
    endloop
  endfacet
  facet normal 1 0 0
    outer loop
      vertex 5 30.5692 -30
      vertex 5 30.5692 -33.75
      vertex 5 32.2879 -33.75
    endloop
  endfacet
  facet normal 1 0 0
    outer loop
      vertex 5 32.2879 -30
      vertex 5 30.5692 -30
      vertex 5 32.2879 -33.75
    endloop
  endfacet
  facet normal 0 1 0
    outer loop
      vertex 2.5 32.2879 -33.75
      vertex 2.5 32.2879 -30
      vertex 5 32.2879 -33.75
    endloop
  endfacet
  facet normal 0 1 0
    outer loop
      vertex 5 32.2879 -33.75
      vertex 2.5 32.2879 -30
      vertex 5 32.2879 -30
    endloop
  endfacet
  facet normal -1 0 0
    outer loop
      vertex 6.25 30.5692 -33.75
      vertex 6.25 30.5692 -30
      vertex 6.25 32.2879 -33.75
    endloop
  endfacet
  facet normal -1 0 0
    outer loop
      vertex 6.25 32.2879 -33.75
      vertex 6.25 30.5692 -30
      vertex 6.25 32.2879 -30
    endloop
  endfacet
  facet normal 0 -1 0
    outer loop
      vertex 6.25 30.5692 -30
      vertex 6.25 30.5692 -33.75
      vertex 8.75 30.5692 -33.75
    endloop
  endfacet
  facet normal 0 -1 0
    outer loop
      vertex 8.75 30.5692 -30
      vertex 6.25 30.5692 -30
      vertex 8.75 30.5692 -33.75
    endloop
  endfacet
  facet normal 1 0 0
    outer loop
      vertex 8.75 30.5692 -30
      vertex 8.75 30.5692 -33.75
      vertex 8.75 32.2879 -33.75
    endloop
  endfacet
  facet normal 1 0 0
    outer loop
      vertex 8.75 32.2879 -30
      vertex 8.75 30.5692 -30
      vertex 8.75 32.2879 -33.75
    endloop
  endfacet
  facet normal 0 1 0
    outer loop
      vertex 6.25 32.2879 -33.75
      vertex 6.25 32.2879 -30
      vertex 8.75 32.2879 -33.75
    endloop
  endfacet
  facet normal 0 1 0
    outer loop
      vertex 8.75 32.2879 -33.75
      vertex 6.25 32.2879 -30
      vertex 8.75 32.2879 -30
    endloop
  endfacet
  facet normal -1 0 0
    outer loop
      vertex 10 30.5692 -33.75
      vertex 10 30.5692 -30
      vertex 10 32.2879 -33.75
    endloop
  endfacet
  facet normal -1 0 0
    outer loop
      vertex 10 32.2879 -33.75
      vertex 10 30.5692 -30
      vertex 10 32.2879 -30
    endloop
  endfacet
  facet normal 0 -1 0
    outer loop
      vertex 10 30.5692 -30
      vertex 10 30.5692 -33.75
      vertex 12.5 30.5692 -33.75
    endloop
  endfacet
  facet normal 0 -1 0
    outer loop
      vertex 12.5 30.5692 -30
      vertex 10 30.5692 -30
      vertex 12.5 30.5692 -33.75
    endloop
  endfacet
  facet normal 1 0 0
    outer loop
      vertex 12.5 30.5692 -30
      vertex 12.5 30.5692 -33.75
      vertex 12.5 32.2879 -33.75
    endloop
  endfacet
  facet normal 1 0 0
    outer loop
      vertex 12.5 32.2879 -30
      vertex 12.5 30.5692 -30
      vertex 12.5 32.2879 -33.75
    endloop
  endfacet
  facet normal 0 1 0
    outer loop
      vertex 10 32.2879 -33.75
      vertex 10 32.2879 -30
      vertex 12.5 32.2879 -33.75
    endloop
  endfacet
  facet normal 0 1 0
    outer loop
      vertex 12.5 32.2879 -33.75
      vertex 10 32.2879 -30
      vertex 12.5 32.2879 -30
    endloop
  endfacet
  facet normal -1 0 0
    outer loop
      vertex 13.75 30.5692 -33.75
      vertex 13.75 30.5692 -30
      vertex 13.75 32.2879 -33.75
    endloop
  endfacet
  facet normal -1 0 0
    outer loop
      vertex 13.75 32.2879 -33.75
      vertex 13.75 30.5692 -30
      vertex 13.75 32.2879 -30
    endloop
  endfacet
  facet normal 0 -1 0
    outer loop
      vertex 13.75 30.5692 -30
      vertex 13.75 30.5692 -33.75
      vertex 16.25 30.5692 -33.75
    endloop
  endfacet
  facet normal 0 -1 0
    outer loop
      vertex 16.25 30.5692 -30
      vertex 13.75 30.5692 -30
      vertex 16.25 30.5692 -33.75
    endloop
  endfacet
  facet normal 1 0 0
    outer loop
      vertex 16.25 30.5692 -30
      vertex 16.25 30.5692 -33.75
      vertex 16.25 32.2879 -33.75
    endloop
  endfacet
  facet normal 1 0 0
    outer loop
      vertex 16.25 32.2879 -30
      vertex 16.25 30.5692 -30
      vertex 16.25 32.2879 -33.75
    endloop
  endfacet
  facet normal 0 1 0
    outer loop
      vertex 13.75 32.2879 -33.75
      vertex 13.75 32.2879 -30
      vertex 16.25 32.2879 -33.75
    endloop
  endfacet
  facet normal 0 1 0
    outer loop
      vertex 16.25 32.2879 -33.75
      vertex 13.75 32.2879 -30
      vertex 16.25 32.2879 -30
    endloop
  endfacet
  facet normal -1 0 0
    outer loop
      vertex 18.9887 30.6938 -33.75
      vertex 18.9887 30.6938 -32.5
      vertex 18.9887 32.1633 -33.75
    endloop
  endfacet
  facet normal -1 0 0
    outer loop
      vertex 18.9887 32.1633 -33.75
      vertex 18.9887 30.6938 -32.5
      vertex 18.9887 32.1633 -32.5
    endloop
  endfacet
  facet normal -0.309017 -0.951057 0
    outer loop
      vertex 18.9887 30.6938 -32.5
      vertex 18.9887 30.6938 -33.75
      vertex 20.3863 30.2398 -33.75
    endloop
  endfacet
  facet normal -0.309017 -0.951057 0
    outer loop
      vertex 20.3863 30.2398 -32.5
      vertex 18.9887 30.6938 -32.5
      vertex 20.3863 30.2398 -33.75
    endloop
  endfacet
  facet normal 0.809017 -0.587785 0
    outer loop
      vertex 20.3863 30.2398 -32.5
      vertex 20.3863 30.2398 -33.75
      vertex 21.25 31.4286 -33.75
    endloop
  endfacet
  facet normal 0.809017 -0.587785 0
    outer loop
      vertex 21.25 31.4286 -32.5
      vertex 20.3863 30.2398 -32.5
      vertex 21.25 31.4286 -33.75
    endloop
  endfacet
  facet normal 0.809017 0.587785 0
    outer loop
      vertex 21.25 31.4286 -33.75
      vertex 20.3863 32.6174 -33.75
      vertex 20.3863 32.6174 -32.5
    endloop
  endfacet
  facet normal 0.809017 0.587785 0
    outer loop
      vertex 21.25 31.4286 -32.5
      vertex 21.25 31.4286 -33.75
      vertex 20.3863 32.6174 -32.5
    endloop
  endfacet
  facet normal -0.309017 0.951057 0
    outer loop
      vertex 18.9887 32.1633 -33.75
      vertex 18.9887 32.1633 -32.5
      vertex 20.3863 32.6174 -33.75
    endloop
  endfacet
  facet normal -0.309017 0.951057 0
    outer loop
      vertex 20.3863 32.6174 -33.75
      vertex 18.9887 32.1633 -32.5
      vertex 20.3863 32.6174 -32.5
    endloop
  endfacet
  facet normal 0 0 1
    outer loop
      vertex -21.0113 32.1633 -32.5
      vertex -21.0113 30.6938 -32.5
      vertex -19.6137 30.2398 -32.5
    endloop
  endfacet
  facet normal 0 0 1
    outer loop
      vertex -19.6137 32.6174 -32.5
      vertex -21.0113 32.1633 -32.5
      vertex -18.75 31.4286 -32.5
    endloop
  endfacet
  facet normal 0 0 1
    outer loop
      vertex -18.75 31.4286 -32.5
      vertex -21.0113 32.1633 -32.5
      vertex -19.6137 30.2398 -32.5
    endloop
  endfacet
  facet normal 0 0 1
    outer loop
      vertex -16.25 32.2879 -30
      vertex -16.25 30.5692 -30
      vertex -13.75 30.5692 -30
    endloop
  endfacet
  facet normal 0 0 1
    outer loop
      vertex -13.75 32.2879 -30
      vertex -16.25 32.2879 -30
      vertex -13.75 30.5692 -30
    endloop
  endfacet
  facet normal 0 0 1
    outer loop
      vertex -12.5 32.2879 -30
      vertex -12.5 30.5692 -30
      vertex -10 30.5692 -30
    endloop
  endfacet
  facet normal 0 0 1
    outer loop
      vertex -10 32.2879 -30
      vertex -12.5 32.2879 -30
      vertex -10 30.5692 -30
    endloop
  endfacet
  facet normal 0 0 1
    outer loop
      vertex -8.75 32.2879 -30
      vertex -8.75 30.5692 -30
      vertex -6.25 30.5692 -30
    endloop
  endfacet
  facet normal 0 0 1
    outer loop
      vertex -6.25 32.2879 -30
      vertex -8.75 32.2879 -30
      vertex -6.25 30.5692 -30
    endloop
  endfacet
  facet normal 0 0 1
    outer loop
      vertex -5 32.2879 -30
      vertex -5 30.5692 -30
      vertex -2.5 30.5692 -30
    endloop
  endfacet
  facet normal 0 0 1
    outer loop
      vertex -2.5 32.2879 -30
      vertex -5 32.2879 -30
      vertex -2.5 30.5692 -30
    endloop
  endfacet
  facet normal 0 0 1
    outer loop
      vertex -1.25 32.2879 -30
      vertex -1.25 30.5692 -30
      vertex 1.25 30.5692 -30
    endloop
  endfacet
  facet normal 0 0 1
    outer loop
      vertex 1.25 32.2879 -30
      vertex -1.25 32.2879 -30
      vertex 1.25 30.5692 -30
    endloop
  endfacet
  facet normal 0 0 1
    outer loop
      vertex 2.5 32.2879 -30
      vertex 2.5 30.5692 -30
      vertex 5 30.5692 -30
    endloop
  endfacet
  facet normal 0 0 1
    outer loop
      vertex 5 32.2879 -30
      vertex 2.5 32.2879 -30
      vertex 5 30.5692 -30
    endloop
  endfacet
  facet normal 0 0 1
    outer loop
      vertex 6.25 32.2879 -30
      vertex 6.25 30.5692 -30
      vertex 8.75 30.5692 -30
    endloop
  endfacet
  facet normal 0 0 1
    outer loop
      vertex 8.75 32.2879 -30
      vertex 6.25 32.2879 -30
      vertex 8.75 30.5692 -30
    endloop
  endfacet
  facet normal 0 0 1
    outer loop
      vertex 10 32.2879 -30
      vertex 10 30.5692 -30
      vertex 12.5 30.5692 -30
    endloop
  endfacet
  facet normal 0 0 1
    outer loop
      vertex 12.5 32.2879 -30
      vertex 10 32.2879 -30
      vertex 12.5 30.5692 -30
    endloop
  endfacet
  facet normal 0 0 1
    outer loop
      vertex 13.75 32.2879 -30
      vertex 13.75 30.5692 -30
      vertex 16.25 30.5692 -30
    endloop
  endfacet
  facet normal 0 0 1
    outer loop
      vertex 16.25 32.2879 -30
      vertex 13.75 32.2879 -30
      vertex 16.25 30.5692 -30
    endloop
  endfacet
  facet normal 0 0 1
    outer loop
      vertex 18.9887 32.1633 -32.5
      vertex 18.9887 30.6938 -32.5
      vertex 20.3863 30.2398 -32.5
    endloop
  endfacet
  facet normal 0 0 1
    outer loop
      vertex 20.3863 32.6174 -32.5
      vertex 18.9887 32.1633 -32.5
      vertex 21.25 31.4286 -32.5
    endloop
  endfacet
  facet normal 0 0 1
    outer loop
      vertex 21.25 31.4286 -32.5
      vertex 18.9887 32.1633 -32.5
      vertex 20.3863 30.2398 -32.5
    endloop
  endfacet
endsolid OpenSCAD_Model
