solid OpenSCAD_Model
  facet normal -1 0 0
    outer loop
      vertex -22.5 -36.6667 -23.75
      vertex -22.5 -36.6667 -21.25
      vertex -22.5 36.6667 -23.75
    endloop
  endfacet
  facet normal -1 0 0
    outer loop
      vertex -22.5 36.6667 -23.75
      vertex -22.5 -36.6667 -21.25
      vertex -22.5 36.6667 -21.25
    endloop
  endfacet
  facet normal 0 -1 0
    outer loop
      vertex -22.5 -36.6667 -21.25
      vertex -22.5 -36.6667 -23.75
      vertex -17.5 -36.6667 -23.75
    endloop
  endfacet
  facet normal 0 -1 0
    outer loop
      vertex -19 -36.6667 -21.25
      vertex -22.5 -36.6667 -21.25
      vertex -17.5 -36.6667 -23.75
    endloop
  endfacet
  facet normal 0 -1 0
    outer loop
      vertex 19 -36.6667 -17.5
      vertex -17.5 -36.6667 -19.1667
      vertex 17.5 -36.6667 -19.1667
    endloop
  endfacet
  facet normal 0 -1 0
    outer loop
      vertex 19 -36.6667 -21.25
      vertex 17.5 -36.6667 -19.1667
      vertex 17.5 -36.6667 -23.75
    endloop
  endfacet
  facet normal 0 -1 0
    outer loop
      vertex 19 -36.6667 -21.25
      vertex 19 -36.6667 -17.5
      vertex 17.5 -36.6667 -19.1667
    endloop
  endfacet
  facet normal 0 -1 0
    outer loop
      vertex 22.5 -36.6667 -23.75
      vertex 19 -36.6667 -21.25
      vertex 17.5 -36.6667 -23.75
    endloop
  endfacet
  facet normal 0 -1 0
    outer loop
      vertex -19 -36.6667 -17.5
      vertex -17.5 -36.6667 -19.1667
      vertex 19 -36.6667 -17.5
    endloop
  endfacet
  facet normal 0 -1 0
    outer loop
      vertex -17.5 -36.6667 -19.1667
      vertex -19 -36.6667 -21.25
      vertex -17.5 -36.6667 -23.75
    endloop
  endfacet
  facet normal 0 -1 0
    outer loop
      vertex -19 -36.6667 -17.5
      vertex -19 -36.6667 -21.25
      vertex -17.5 -36.6667 -19.1667
    endloop
  endfacet
  facet normal 0 -1 0
    outer loop
      vertex 22.5 -36.6667 -21.25
      vertex 19 -36.6667 -21.25
      vertex 22.5 -36.6667 -23.75
    endloop
  endfacet
  facet normal 0 0 -1
    outer loop
      vertex -21.0113 32.1633 -23.75
      vertex -22.5 36.6667 -23.75
      vertex -17.5 36.6667 -23.75
    endloop
  endfacet
  facet normal 0 0 -1
    outer loop
      vertex -22.5 -36.6667 -23.75
      vertex -22.5 36.6667 -23.75
      vertex -21.0113 -4.50336 -23.75
    endloop
  endfacet
  facet normal 0 0 -1
    outer loop
      vertex -22.5 -36.6667 -23.75
      vertex -21.0113 -4.50336 -23.75
      vertex -21.0113 -5.97283 -23.75
    endloop
  endfacet
  facet normal 0 0 -1
    outer loop
      vertex -22.5 -36.6667 -23.75
      vertex -21.0113 -5.97283 -23.75
      vertex -17.5 -36.6667 -23.75
    endloop
  endfacet
  facet normal 0 0 -1
    outer loop
      vertex -19.6137 -6.42692 -23.75
      vertex -17.5 -36.6667 -23.75
      vertex -21.0113 -5.97283 -23.75
    endloop
  endfacet
  facet normal 0 0 -1
    outer loop
      vertex -18.75 -5.2381 -23.75
      vertex -17.5 -36.6667 -23.75
      vertex -19.6137 -6.42692 -23.75
    endloop
  endfacet
  facet normal 0 0 -1
    outer loop
      vertex -19.6137 -4.04927 -23.75
      vertex -22.5 36.6667 -23.75
      vertex -18.75 -5.2381 -23.75
    endloop
  endfacet
  facet normal 0 0 -1
    outer loop
      vertex -17.5 -36.6667 -23.75
      vertex -18.75 -5.2381 -23.75
      vertex -17.5 36.6667 -23.75
    endloop
  endfacet
  facet normal 0 0 -1
    outer loop
      vertex -19.6137 30.2398 -23.75
      vertex -18.75 -5.2381 -23.75
      vertex -21.0113 30.6938 -23.75
    endloop
  endfacet
  facet normal 0 0 -1
    outer loop
      vertex -21.0113 30.6938 -23.75
      vertex -22.5 36.6667 -23.75
      vertex -21.0113 32.1633 -23.75
    endloop
  endfacet
  facet normal 0 0 -1
    outer loop
      vertex -19.6137 32.6174 -23.75
      vertex -21.0113 32.1633 -23.75
      vertex -17.5 36.6667 -23.75
    endloop
  endfacet
  facet normal 0 0 -1
    outer loop
      vertex -18.75 -5.2381 -23.75
      vertex -22.5 36.6667 -23.75
      vertex -21.0113 30.6938 -23.75
    endloop
  endfacet
  facet normal 0 0 -1
    outer loop
      vertex -19.6137 32.6174 -23.75
      vertex -17.5 36.6667 -23.75
      vertex -18.75 31.4286 -23.75
    endloop
  endfacet
  facet normal 0 0 -1
    outer loop
      vertex -18.75 -5.2381 -23.75
      vertex -19.6137 30.2398 -23.75
      vertex -18.75 31.4286 -23.75
    endloop
  endfacet
  facet normal 0 0 -1
    outer loop
      vertex -18.75 -5.2381 -23.75
      vertex -18.75 31.4286 -23.75
      vertex -17.5 36.6667 -23.75
    endloop
  endfacet
  facet normal 0 0 -1
    outer loop
      vertex -21.0113 -4.50336 -23.75
      vertex -22.5 36.6667 -23.75
      vertex -19.6137 -4.04927 -23.75
    endloop
  endfacet
  facet normal 0 1 0
    outer loop
      vertex -22.5 36.6667 -23.75
      vertex -22.5 36.6667 -21.25
      vertex -17.5 36.6667 -23.75
    endloop
  endfacet
  facet normal 0 1 0
    outer loop
      vertex -17.5 36.6667 -23.75
      vertex -22.5 36.6667 -21.25
      vertex -19 36.6667 -21.25
    endloop
  endfacet
  facet normal 0 1 0
    outer loop
      vertex -17.5 36.6667 -23.75
      vertex -19 36.6667 -21.25
      vertex -19 36.6667 -17.5
    endloop
  endfacet
  facet normal 0 1 0
    outer loop
      vertex -17.5 36.6667 -19.1667
      vertex -19 36.6667 -17.5
      vertex 19 36.6667 -17.5
    endloop
  endfacet
  facet normal 0 1 0
    outer loop
      vertex 17.5 36.6667 -19.1667
      vertex 19 36.6667 -17.5
      vertex 19 36.6667 -21.25
    endloop
  endfacet
  facet normal 0 1 0
    outer loop
      vertex 17.5 36.6667 -23.75
      vertex 22.5 36.6667 -21.25
      vertex 22.5 36.6667 -23.75
    endloop
  endfacet
  facet normal 0 1 0
    outer loop
      vertex -17.5 36.6667 -19.1667
      vertex 19 36.6667 -17.5
      vertex 17.5 36.6667 -19.1667
    endloop
  endfacet
  facet normal 0 1 0
    outer loop
      vertex -17.5 36.6667 -23.75
      vertex -19 36.6667 -17.5
      vertex -17.5 36.6667 -19.1667
    endloop
  endfacet
  facet normal 0 1 0
    outer loop
      vertex 19 36.6667 -21.25
      vertex 22.5 36.6667 -21.25
      vertex 17.5 36.6667 -23.75
    endloop
  endfacet
  facet normal 0 1 0
    outer loop
      vertex 17.5 36.6667 -19.1667
      vertex 19 36.6667 -21.25
      vertex 17.5 36.6667 -23.75
    endloop
  endfacet
  facet normal 0 0 1
    outer loop
      vertex -22.5 36.6667 -21.25
      vertex -22.5 -36.6667 -21.25
      vertex -19 -36.6667 -21.25
    endloop
  endfacet
  facet normal 0 0 1
    outer loop
      vertex -19 36.6667 -21.25
      vertex -22.5 36.6667 -21.25
      vertex -19 -36.6667 -21.25
    endloop
  endfacet
  facet normal -1 0 0
    outer loop
      vertex -19 -36.6667 -21.25
      vertex -19 -36.6667 -17.5
      vertex -19 36.6667 -21.25
    endloop
  endfacet
  facet normal -1 0 0
    outer loop
      vertex -19 36.6667 -21.25
      vertex -19 -36.6667 -17.5
      vertex -19 36.6667 -17.5
    endloop
  endfacet
  facet normal 0 0 1
    outer loop
      vertex -19 36.6667 -17.5
      vertex -19 -36.6667 -17.5
      vertex 19 -36.6667 -17.5
    endloop
  endfacet
  facet normal 0 0 1
    outer loop
      vertex 19 36.6667 -17.5
      vertex -19 36.6667 -17.5
      vertex 19 -36.6667 -17.5
    endloop
  endfacet
  facet normal 1 0 0
    outer loop
      vertex 19 -36.6667 -17.5
      vertex 19 -36.6667 -21.25
      vertex 19 36.6667 -21.25
    endloop
  endfacet
  facet normal 1 0 0
    outer loop
      vertex 19 36.6667 -17.5
      vertex 19 -36.6667 -17.5
      vertex 19 36.6667 -21.25
    endloop
  endfacet
  facet normal 0 0 1
    outer loop
      vertex 19 36.6667 -21.25
      vertex 19 -36.6667 -21.25
      vertex 22.5 -36.6667 -21.25
    endloop
  endfacet
  facet normal 0 0 1
    outer loop
      vertex 22.5 36.6667 -21.25
      vertex 19 36.6667 -21.25
      vertex 22.5 -36.6667 -21.25
    endloop
  endfacet
  facet normal 1 0 0
    outer loop
      vertex 22.5 -36.6667 -21.25
      vertex 22.5 -36.6667 -23.75
      vertex 22.5 36.6667 -23.75
    endloop
  endfacet
  facet normal 1 0 0
    outer loop
      vertex 22.5 36.6667 -21.25
      vertex 22.5 -36.6667 -21.25
      vertex 22.5 36.6667 -23.75
    endloop
  endfacet
  facet normal 0 0 -1
    outer loop
      vertex 18.9887 32.1633 -23.75
      vertex 17.5 36.6667 -23.75
      vertex 22.5 36.6667 -23.75
    endloop
  endfacet
  facet normal 0 0 -1
    outer loop
      vertex 17.5 -36.6667 -23.75
      vertex 17.5 36.6667 -23.75
      vertex 18.9887 -4.50336 -23.75
    endloop
  endfacet
  facet normal 0 0 -1
    outer loop
      vertex 17.5 -36.6667 -23.75
      vertex 18.9887 -4.50336 -23.75
      vertex 18.9887 -5.97283 -23.75
    endloop
  endfacet
  facet normal 0 0 -1
    outer loop
      vertex 17.5 -36.6667 -23.75
      vertex 18.9887 -5.97283 -23.75
      vertex 22.5 -36.6667 -23.75
    endloop
  endfacet
  facet normal 0 0 -1
    outer loop
      vertex 20.3863 -6.42692 -23.75
      vertex 22.5 -36.6667 -23.75
      vertex 18.9887 -5.97283 -23.75
    endloop
  endfacet
  facet normal 0 0 -1
    outer loop
      vertex 21.25 -5.2381 -23.75
      vertex 22.5 -36.6667 -23.75
      vertex 20.3863 -6.42692 -23.75
    endloop
  endfacet
  facet normal 0 0 -1
    outer loop
      vertex 20.3863 -4.04927 -23.75
      vertex 17.5 36.6667 -23.75
      vertex 21.25 -5.2381 -23.75
    endloop
  endfacet
  facet normal 0 0 -1
    outer loop
      vertex 22.5 -36.6667 -23.75
      vertex 21.25 -5.2381 -23.75
      vertex 22.5 36.6667 -23.75
    endloop
  endfacet
  facet normal 0 0 -1
    outer loop
      vertex 20.3863 30.2398 -23.75
      vertex 21.25 -5.2381 -23.75
      vertex 18.9887 30.6938 -23.75
    endloop
  endfacet
  facet normal 0 0 -1
    outer loop
      vertex 18.9887 30.6938 -23.75
      vertex 17.5 36.6667 -23.75
      vertex 18.9887 32.1633 -23.75
    endloop
  endfacet
  facet normal 0 0 -1
    outer loop
      vertex 20.3863 32.6174 -23.75
      vertex 18.9887 32.1633 -23.75
      vertex 22.5 36.6667 -23.75
    endloop
  endfacet
  facet normal 0 0 -1
    outer loop
      vertex 21.25 -5.2381 -23.75
      vertex 17.5 36.6667 -23.75
      vertex 18.9887 30.6938 -23.75
    endloop
  endfacet
  facet normal 0 0 -1
    outer loop
      vertex 20.3863 32.6174 -23.75
      vertex 22.5 36.6667 -23.75
      vertex 21.25 31.4286 -23.75
    endloop
  endfacet
  facet normal 0 0 -1
    outer loop
      vertex 21.25 -5.2381 -23.75
      vertex 20.3863 30.2398 -23.75
      vertex 21.25 31.4286 -23.75
    endloop
  endfacet
  facet normal 0 0 -1
    outer loop
      vertex 21.25 -5.2381 -23.75
      vertex 21.25 31.4286 -23.75
      vertex 22.5 36.6667 -23.75
    endloop
  endfacet
  facet normal 0 0 -1
    outer loop
      vertex 18.9887 -4.50336 -23.75
      vertex 17.5 36.6667 -23.75
      vertex 20.3863 -4.04927 -23.75
    endloop
  endfacet
  facet normal -1 0 0
    outer loop
      vertex 17.5 36.6667 -19.1667
      vertex 17.5 36.6667 -23.75
      vertex 17.5 -36.6667 -19.1667
    endloop
  endfacet
  facet normal -1 0 0
    outer loop
      vertex 17.5 -36.6667 -19.1667
      vertex 17.5 36.6667 -23.75
      vertex 17.5 -36.6667 -23.75
    endloop
  endfacet
  facet normal 0 0 -1
    outer loop
      vertex 17.5 36.6667 -19.1667
      vertex 17.5 -36.6667 -19.1667
      vertex -17.5 36.6667 -19.1667
    endloop
  endfacet
  facet normal 0 0 -1
    outer loop
      vertex -17.5 36.6667 -19.1667
      vertex 17.5 -36.6667 -19.1667
      vertex -17.5 -36.6667 -19.1667
    endloop
  endfacet
  facet normal 1 0 0
    outer loop
      vertex -17.5 36.6667 -23.75
      vertex -17.5 36.6667 -19.1667
      vertex -17.5 -36.6667 -19.1667
    endloop
  endfacet
  facet normal 1 0 0
    outer loop
      vertex -17.5 -36.6667 -23.75
      vertex -17.5 36.6667 -23.75
      vertex -17.5 -36.6667 -19.1667
    endloop
  endfacet
  facet normal 0.309017 -0.951057 0
    outer loop
      vertex -19.6137 -4.04927 -23.75
      vertex -19.6137 -4.04927 -22.5
      vertex -21.0113 -4.50336 -22.5
    endloop
  endfacet
  facet normal 0.309017 -0.951057 0
    outer loop
      vertex -21.0113 -4.50336 -23.75
      vertex -19.6137 -4.04927 -23.75
      vertex -21.0113 -4.50336 -22.5
    endloop
  endfacet
  facet normal 1 0 0
    outer loop
      vertex -21.0113 -4.50336 -23.75
      vertex -21.0113 -4.50336 -22.5
      vertex -21.0113 -5.97283 -22.5
    endloop
  endfacet
  facet normal 1 0 0
    outer loop
      vertex -21.0113 -5.97283 -23.75
      vertex -21.0113 -4.50336 -23.75
      vertex -21.0113 -5.97283 -22.5
    endloop
  endfacet
  facet normal -0.809017 -0.587785 0
    outer loop
      vertex -18.75 -5.2381 -22.5
      vertex -19.6137 -4.04927 -22.5
      vertex -18.75 -5.2381 -23.75
    endloop
  endfacet
  facet normal -0.809017 -0.587785 0
    outer loop
      vertex -18.75 -5.2381 -23.75
      vertex -19.6137 -4.04927 -22.5
      vertex -19.6137 -4.04927 -23.75
    endloop
  endfacet
  facet normal -0.809017 0.587785 0
    outer loop
      vertex -18.75 -5.2381 -22.5
      vertex -18.75 -5.2381 -23.75
      vertex -19.6137 -6.42692 -22.5
    endloop
  endfacet
  facet normal -0.809017 0.587785 0
    outer loop
      vertex -19.6137 -6.42692 -22.5
      vertex -18.75 -5.2381 -23.75
      vertex -19.6137 -6.42692 -23.75
    endloop
  endfacet
  facet normal 0.309017 0.951057 0
    outer loop
      vertex -19.6137 -6.42692 -22.5
      vertex -19.6137 -6.42692 -23.75
      vertex -21.0113 -5.97283 -22.5
    endloop
  endfacet
  facet normal 0.309017 0.951057 0
    outer loop
      vertex -21.0113 -5.97283 -22.5
      vertex -19.6137 -6.42692 -23.75
      vertex -21.0113 -5.97283 -23.75
    endloop
  endfacet
  facet normal 1 0 0
    outer loop
      vertex -21.0113 32.1633 -23.75
      vertex -21.0113 32.1633 -22.5
      vertex -21.0113 30.6938 -22.5
    endloop
  endfacet
  facet normal 1 0 0
    outer loop
      vertex -21.0113 30.6938 -23.75
      vertex -21.0113 32.1633 -23.75
      vertex -21.0113 30.6938 -22.5
    endloop
  endfacet
  facet normal 0.309017 -0.951057 0
    outer loop
      vertex -19.6137 32.6174 -23.75
      vertex -19.6137 32.6174 -22.5
      vertex -21.0113 32.1633 -22.5
    endloop
  endfacet
  facet normal 0.309017 -0.951057 0
    outer loop
      vertex -21.0113 32.1633 -23.75
      vertex -19.6137 32.6174 -23.75
      vertex -21.0113 32.1633 -22.5
    endloop
  endfacet
  facet normal -0.809017 -0.587785 0
    outer loop
      vertex -18.75 31.4286 -22.5
      vertex -19.6137 32.6174 -22.5
      vertex -18.75 31.4286 -23.75
    endloop
  endfacet
  facet normal -0.809017 -0.587785 0
    outer loop
      vertex -18.75 31.4286 -23.75
      vertex -19.6137 32.6174 -22.5
      vertex -19.6137 32.6174 -23.75
    endloop
  endfacet
  facet normal -0.809017 0.587785 0
    outer loop
      vertex -18.75 31.4286 -22.5
      vertex -18.75 31.4286 -23.75
      vertex -19.6137 30.2398 -22.5
    endloop
  endfacet
  facet normal -0.809017 0.587785 0
    outer loop
      vertex -19.6137 30.2398 -22.5
      vertex -18.75 31.4286 -23.75
      vertex -19.6137 30.2398 -23.75
    endloop
  endfacet
  facet normal 0.309017 0.951057 0
    outer loop
      vertex -19.6137 30.2398 -22.5
      vertex -19.6137 30.2398 -23.75
      vertex -21.0113 30.6938 -22.5
    endloop
  endfacet
  facet normal 0.309017 0.951057 0
    outer loop
      vertex -21.0113 30.6938 -22.5
      vertex -19.6137 30.2398 -23.75
      vertex -21.0113 30.6938 -23.75
    endloop
  endfacet
  facet normal 0.309017 -0.951057 0
    outer loop
      vertex 20.3863 -4.04927 -23.75
      vertex 20.3863 -4.04927 -22.5
      vertex 18.9887 -4.50336 -22.5
    endloop
  endfacet
  facet normal 0.309017 -0.951057 0
    outer loop
      vertex 18.9887 -4.50336 -23.75
      vertex 20.3863 -4.04927 -23.75
      vertex 18.9887 -4.50336 -22.5
    endloop
  endfacet
  facet normal 1 0 0
    outer loop
      vertex 18.9887 -4.50336 -23.75
      vertex 18.9887 -4.50336 -22.5
      vertex 18.9887 -5.97283 -22.5
    endloop
  endfacet
  facet normal 1 0 0
    outer loop
      vertex 18.9887 -5.97283 -23.75
      vertex 18.9887 -4.50336 -23.75
      vertex 18.9887 -5.97283 -22.5
    endloop
  endfacet
  facet normal -0.809017 -0.587785 0
    outer loop
      vertex 21.25 -5.2381 -22.5
      vertex 20.3863 -4.04927 -22.5
      vertex 21.25 -5.2381 -23.75
    endloop
  endfacet
  facet normal -0.809017 -0.587785 0
    outer loop
      vertex 21.25 -5.2381 -23.75
      vertex 20.3863 -4.04927 -22.5
      vertex 20.3863 -4.04927 -23.75
    endloop
  endfacet
  facet normal -0.809017 0.587785 0
    outer loop
      vertex 21.25 -5.2381 -22.5
      vertex 21.25 -5.2381 -23.75
      vertex 20.3863 -6.42692 -22.5
    endloop
  endfacet
  facet normal -0.809017 0.587785 0
    outer loop
      vertex 20.3863 -6.42692 -22.5
      vertex 21.25 -5.2381 -23.75
      vertex 20.3863 -6.42692 -23.75
    endloop
  endfacet
  facet normal 0.309017 0.951057 0
    outer loop
      vertex 20.3863 -6.42692 -22.5
      vertex 20.3863 -6.42692 -23.75
      vertex 18.9887 -5.97283 -22.5
    endloop
  endfacet
  facet normal 0.309017 0.951057 0
    outer loop
      vertex 18.9887 -5.97283 -22.5
      vertex 20.3863 -6.42692 -23.75
      vertex 18.9887 -5.97283 -23.75
    endloop
  endfacet
  facet normal 1 0 0
    outer loop
      vertex 18.9887 32.1633 -23.75
      vertex 18.9887 32.1633 -22.5
      vertex 18.9887 30.6938 -22.5
    endloop
  endfacet
  facet normal 1 0 0
    outer loop
      vertex 18.9887 30.6938 -23.75
      vertex 18.9887 32.1633 -23.75
      vertex 18.9887 30.6938 -22.5
    endloop
  endfacet
  facet normal 0.309017 -0.951057 0
    outer loop
      vertex 20.3863 32.6174 -23.75
      vertex 20.3863 32.6174 -22.5
      vertex 18.9887 32.1633 -22.5
    endloop
  endfacet
  facet normal 0.309017 -0.951057 0
    outer loop
      vertex 18.9887 32.1633 -23.75
      vertex 20.3863 32.6174 -23.75
      vertex 18.9887 32.1633 -22.5
    endloop
  endfacet
  facet normal -0.809017 -0.587785 0
    outer loop
      vertex 21.25 31.4286 -22.5
      vertex 20.3863 32.6174 -22.5
      vertex 21.25 31.4286 -23.75
    endloop
  endfacet
  facet normal -0.809017 -0.587785 0
    outer loop
      vertex 21.25 31.4286 -23.75
      vertex 20.3863 32.6174 -22.5
      vertex 20.3863 32.6174 -23.75
    endloop
  endfacet
  facet normal -0.809017 0.587785 0
    outer loop
      vertex 21.25 31.4286 -22.5
      vertex 21.25 31.4286 -23.75
      vertex 20.3863 30.2398 -22.5
    endloop
  endfacet
  facet normal -0.809017 0.587785 0
    outer loop
      vertex 20.3863 30.2398 -22.5
      vertex 21.25 31.4286 -23.75
      vertex 20.3863 30.2398 -23.75
    endloop
  endfacet
  facet normal 0.309017 0.951057 0
    outer loop
      vertex 20.3863 30.2398 -22.5
      vertex 20.3863 30.2398 -23.75
      vertex 18.9887 30.6938 -22.5
    endloop
  endfacet
  facet normal 0.309017 0.951057 0
    outer loop
      vertex 18.9887 30.6938 -22.5
      vertex 20.3863 30.2398 -23.75
      vertex 18.9887 30.6938 -23.75
    endloop
  endfacet
  facet normal 0 0 -1
    outer loop
      vertex -19.6137 -4.04927 -22.5
      vertex -18.75 -5.2381 -22.5
      vertex -21.0113 -4.50336 -22.5
    endloop
  endfacet
  facet normal 0 0 -1
    outer loop
      vertex -21.0113 -4.50336 -22.5
      vertex -18.75 -5.2381 -22.5
      vertex -19.6137 -6.42692 -22.5
    endloop
  endfacet
  facet normal 0 0 -1
    outer loop
      vertex -21.0113 -4.50336 -22.5
      vertex -19.6137 -6.42692 -22.5
      vertex -21.0113 -5.97283 -22.5
    endloop
  endfacet
  facet normal 0 0 -1
    outer loop
      vertex -19.6137 32.6174 -22.5
      vertex -18.75 31.4286 -22.5
      vertex -21.0113 32.1633 -22.5
    endloop
  endfacet
  facet normal 0 0 -1
    outer loop
      vertex -21.0113 32.1633 -22.5
      vertex -18.75 31.4286 -22.5
      vertex -19.6137 30.2398 -22.5
    endloop
  endfacet
  facet normal 0 0 -1
    outer loop
      vertex -21.0113 32.1633 -22.5
      vertex -19.6137 30.2398 -22.5
      vertex -21.0113 30.6938 -22.5
    endloop
  endfacet
  facet normal 0 0 -1
    outer loop
      vertex 20.3863 -4.04927 -22.5
      vertex 21.25 -5.2381 -22.5
      vertex 18.9887 -4.50336 -22.5
    endloop
  endfacet
  facet normal 0 0 -1
    outer loop
      vertex 18.9887 -4.50336 -22.5
      vertex 21.25 -5.2381 -22.5
      vertex 20.3863 -6.42692 -22.5
    endloop
  endfacet
  facet normal 0 0 -1
    outer loop
      vertex 18.9887 -4.50336 -22.5
      vertex 20.3863 -6.42692 -22.5
      vertex 18.9887 -5.97283 -22.5
    endloop
  endfacet
  facet normal 0 0 -1
    outer loop
      vertex 20.3863 32.6174 -22.5
      vertex 21.25 31.4286 -22.5
      vertex 18.9887 32.1633 -22.5
    endloop
  endfacet
  facet normal 0 0 -1
    outer loop
      vertex 18.9887 32.1633 -22.5
      vertex 21.25 31.4286 -22.5
      vertex 20.3863 30.2398 -22.5
    endloop
  endfacet
  facet normal 0 0 -1
    outer loop
      vertex 18.9887 32.1633 -22.5
      vertex 20.3863 30.2398 -22.5
      vertex 18.9887 30.6938 -22.5
    endloop
  endfacet
endsolid OpenSCAD_Model
